<svg width="24" height="24" viewBox="0 0 24 24" fill="none" xmlns="http://www.w3.org/2000/svg">
<path fill-rule="evenodd" clip-rule="evenodd" d="M9 4.5H10.5H12H13.5H15H15.75V5.25H16.5H18V6H18.75V6.75H19.5V8.25H20.25V9.75V11.25V12.75V13.5V14.25H19.5V15.75H18.75V16.5H18V17.25H16.5H15V18H13.5H12.75V18.75H12V19.5H10.5V20.25H9H7.5V18.75V17.25H6.75V16.5H5.25V15.75H4.5V14.25H3.75V12.75V11.25V9.75V8.25H4.5V6.75H5.25V6H6V5.25H7.5H8.25V4.5H9ZM18.75 8.25H18V7.5H17.25V6.75H16.5H15V6H13.5H12H10.5H9V6.75H7.5H6.75V7.5H6V8.25H5.25V9.75V11.25V12.75V14.25H6V15H6.75V15.75H7.5H9V17.25V18.75H10.5V18H11.25V17.25H12V16.5H13.5H15V15.75H16.5H17.25V15H18V14.25H18.75V12.75V11.25V9.75V8.25ZM14.25 10.5H15.75V12H14.25V10.5ZM12.75 10.5H11.25V12H12.75V10.5ZM8.25 10.5H9.75V12H8.25V10.5Z" fill="white"/>
</svg>
