<svg width="24" height="24" viewBox="0 0 24 24" fill="none" xmlns="http://www.w3.org/2000/svg">
<path fill-rule="evenodd" clip-rule="evenodd" d="M7.5 6H6V7.5H6.75V8.25H7.5V9H8.25V9.75H9V10.5H9.75V11.25H10.5V12V12.75H9.75V13.5H9V14.25H8.25V15H7.5V15.75H6.75V16.5H6V18H7.5V17.25H8.25V16.5H9V15.75H9.75V15H10.5V14.25H11.25V13.5H12H12.75V14.25H13.5V15H14.25V15.75H15V16.5H15.75V17.25H16.5V18H18V16.5H17.25V15.75H16.5V15H15.75V14.25H15V13.5H14.25V12.75H13.5V12V11.25H14.25V10.5H15V9.75H15.75V9H16.5V8.25H17.25V7.5H18V6H16.5V6.75H15.75V7.5H15V8.25H14.25V9H13.5V9.75H12.75V10.5H12H11.25V9.75H10.5V9H9.75V8.25H9V7.5H8.25V6.75H7.5V6Z" fill="black"/>
</svg>
