<svg width="24" height="24" viewBox="0 0 24 24" fill="none" xmlns="http://www.w3.org/2000/svg">
<path fill-rule="evenodd" clip-rule="evenodd" d="M3.75 6H12.75V4.5H14.25H15.75H17.25V6H20.25V7.5H17.25V9H15.75H14.25H12.75V7.5H3.75V6ZM15.75 6H14.25V7.5L15.75 7.5V6ZM3.75 18V16.5H12.75V15H14.25H15.75H17.25V16.5H20.25V18H17.25V19.5H15.75H14.25H12.75V18H3.75ZM15.75 16.5V18H14.25V16.5H15.75ZM20.25 11.25V12.75H11.25V14.25H9.75H8.25H6.75V12.75H3.75V11.25H6.75V9.75H8.25H9.75H11.25V11.25H20.25ZM8.25 12.75V11.25H9.75V12.75H8.25Z" fill="#343435"/>
</svg>
