<svg width="24" height="24" viewBox="0 0 24 24" fill="none" xmlns="http://www.w3.org/2000/svg">
<path fill-rule="evenodd" clip-rule="evenodd" d="M17.25 4.5H18.75V6V7.5V9V10.5V12V13.5V15H18V15.75H17.25V16.5H15.75V18H15V18.75H14.25V19.5H12.75H11.25H9.75H8.25H6.75H5.25V18V16.5V15V13.5V12V10.5V9H6V8.25H6.75V7.5H8.25V6H9V5.25H9.75V4.5H11.25H12.75H14.25H15.75H17.25ZM17.25 7.5V6H15.75H14.25H12.75H11.25H10.5V6.75H9.75V7.5H11.25H12.75H14.25H15.75V9V10.5V12V13.5V15H16.5V14.25H17.25V13.5V12V10.5V9V7.5ZM14.25 16.5V17.25H13.5V18H12.75H11.25H9.75H8.25H6.75V16.5V15V13.5V12V10.5V9.75H7.5V9H8.25H9.75H11.25H12.75H14.25V10.5V12V13.5V15V16.5Z" fill="black"/>
</svg>
