<svg width="20" height="20" viewBox="0 0 20 20" fill="none" xmlns="http://www.w3.org/2000/svg">
<path fill-rule="evenodd" clip-rule="evenodd" d="M9.375 3.125H8.125H7.5V3.75H6.875V4.375V5.625H5.625H4.375H3.125V6.875H4.375H5V8.125V9.375V10.625V11.875V13.125V14.375V15.625V16.25H5.625V16.875H6.25H7.5H8.75H10H11.25H12.5H13.75H14.375V16.25H15V15.625V14.375V13.125V11.875V10.625V9.375V8.125V6.875H15.625H16.875V5.625H15.625H14.375H13.125V4.375V3.75H12.5V3.125H11.875H10.625H9.375ZM13.75 6.875H13.125H11.875H10.625H9.375H8.125H6.875H6.25V8.125V9.375V10.625V11.875V13.125V14.375V15.625H7.5H8.75H10H11.25H12.5H13.75V14.375V13.125V11.875V10.625V9.375V8.125V6.875ZM10.625 5.625H11.875V4.375H10.625H9.375H8.125V5.625H9.375H10.625ZM9.375 14.375V13.125V11.875V10.625V9.375V8.125H8.125V9.375V10.625V11.875V13.125V14.375H9.375ZM11.875 13.125V14.375H10.625V13.125V11.875V10.625V9.375V8.125H11.875V9.375V10.625V11.875V13.125Z" fill="#FF4665"/>
</svg>
