<svg width="16" height="16" viewBox="0 0 16 16" fill="none" xmlns="http://www.w3.org/2000/svg">
<path fill-rule="evenodd" clip-rule="evenodd" d="M3.49988 5.5L3.49988 6.5L3.99988 6.5L3.99988 7L4.49988 7L4.49988 7.5L4.99988 7.5L4.99988 8L5.49988 8L5.49988 8.5L5.99988 8.5L5.99988 9L6.49988 9L6.49988 9.5L6.99988 9.5L6.99988 10L7.49988 10L7.49988 10.5L8.49988 10.5L8.49988 10L8.99988 10L8.99988 9.5L9.49988 9.5L9.49988 9L9.99988 9L9.99988 8.5L10.4999 8.5L10.4999 8L10.9999 8L10.9999 7.5L11.4999 7.5L11.4999 7L11.9999 7L11.9999 6.5L12.4999 6.5L12.4999 5.5L11.4999 5.5L11.4999 6L10.9999 6L10.9999 6.5L10.4999 6.5L10.4999 7L9.99988 7L9.99988 7.5L9.49988 7.5L9.49988 8L8.99988 8L8.99988 8.5L8.49988 8.5L8.49988 9L7.99988 9L7.49988 9L7.49988 8.5L6.99988 8.5L6.99988 8L6.49988 8L6.49988 7.5L5.99988 7.5L5.99988 7L5.49988 7L5.49988 6.5L4.99988 6.5L4.99988 6L4.49988 6L4.49988 5.5L3.49988 5.5Z" fill="#C2C2C5"/>
</svg>
