<svg width="24" height="24" viewBox="0 0 24 24" fill="none" xmlns="http://www.w3.org/2000/svg">
<path fill-rule="evenodd" clip-rule="evenodd" d="M15 5.25H13.5V6H12.75V6.75H12V7.5H11.25V8.25H10.5V9H9.75V9.75H9V10.5H8.25V11.25H7.5V12H6.75V12.75H6V13.5H5.25V15V16.5V18V18.75H6H7.5H9H10.5V18H11.25V17.25H12V16.5H12.75V15.75H13.5V15H14.25V14.25H15V13.5H15.75V12.75H16.5V12H17.25V11.25H18V10.5H18.75V9H18V8.25H17.25V7.5H16.5V6.75H15.75V6H15V5.25ZM6.75 17.25H7.5H9H9.75V16.5H10.5V15.75H11.25V15H12V14.25H12.75V13.5H13.5V12.75H14.25V12H15V11.25H15.75V10.5H16.5V9.75V9H15.75V8.25H15V7.5H14.25H13.5V8.25H12.75V9H12V9.75H11.25V10.5H10.5V11.25H9.75V12H9V12.75H8.25V13.5H7.5V14.25H6.75V15V16.5V17.25Z" fill="black"/>
</svg>
