<svg width="16" height="16" viewBox="0 0 16 16" fill="none" xmlns="http://www.w3.org/2000/svg">
<path fill-rule="evenodd" clip-rule="evenodd" d="M8.5 2.5H9.5V3L10.5 3V3.5L11.5 3.5V4H12V4.5H12.5V5.5H13V6.5H13.5V7.5V8.5V9.5H13V10.5H12.5V11.5H12V12H11.5V12.5H10.5V13H9.5V13.5H8.5H7.5H6.5V13H5.5V12.5H4.5V12H4V11.5H3.5L3.5 10.5H3L3 9.5H2.5V8.5V7.5V6.5H3L3 5.5H3.5L3.5 4.5H4V4H4.5V3.5L5.5 3.5V3L6.5 3V2.5H7.5H8.5ZM7.5 3.5L6.5 3.5V4L5.5 4V4.5H4.5L4.5 5.5H4L4 6.5H3.5L3.5 7.5V8.5V9.5H4L4 10.5H4.5V11.5H5.5V12H6.5V12.5H7.5H8.5H9.5V12H10.5V11.5H11.5V10.5H12V9.5H12.5V8.5V7.5V6.5H12V5.5H11.5V4.5L10.5 4.5V4L9.5 4V3.5L8.5 3.5H7.5ZM7.5 5.5H8.5V6H9V7H8.5V7.5H8V8H7.5V9.5H8.5V8.5H9V8H9.5V7.5H10V7V6H9.5V5H8.5V4.5L7.5 4.5V5H6.5V6H6V7H7V6H7.5V5.5ZM8.5 11.5V10.5H7.5V11.5H8.5Z" fill="#8D8D92"/>
</svg>
