<svg width="32" height="32" viewBox="0 0 32 32" fill="none" xmlns="http://www.w3.org/2000/svg">
<path fill-rule="evenodd" clip-rule="evenodd" d="M13 5H15H17H19V6H21V7H23V8H24V9H25V11H26V13H27V15V17V19H26V21H25V23H24V24H23V25H21V26H19V27H17H15H13V26H11V25H9V24H8V23H7V21H6V19H5V17V15V13H6V11H7V9H8V8H9V7H11V6H13V5ZM17 25H19V24H21V23H23V21H24V19H25V17V15V13H24V11H23V9H21V8H19V7H17H15H13V8H11V9H9V11H8V13H7V15V17V19H8V21H9V23H11V24H13V25H15H17ZM11 11H13V13H11V11ZM11 15H13V17H11V15ZM17 11H15V13H17V11ZM15 15H17V17H15V15ZM21 11H19V13H21V11ZM19 15H21V17H19V15ZM20 19H12V21H20V19Z" fill="black"/>
</svg>
