<svg width="20" height="20" viewBox="0 0 20 20" fill="none" xmlns="http://www.w3.org/2000/svg">
<path fill-rule="evenodd" clip-rule="evenodd" d="M8.125 3.125H9.375H10.625H11.875V3.75H13.125V4.375H14.375V5H15V5.625H15.625V6.875H16.25V8.125H16.875V9.375V10.625V11.875H16.25V13.125H15.625V14.375H15V15H14.375V15.625H13.125V16.25H11.875V16.875H10.625H9.375H8.125V16.25H6.875V15.625H5.625V15H5V14.375H4.375V13.125H3.75V11.875H3.125V10.625V9.375V8.125H3.75V6.875H4.375V5.625H5V5H5.625V4.375H6.875V3.75H8.125V3.125ZM11.25 15.625H11.875V15H13.125V14.375H14.375V13.125H15V11.875H15.625V10.625H14.375H13.75H13.125V11.875H12.5V13.125H11.875V14.375H11.25V15.625ZM11.875 5.625H11.25V4.375H11.875V5H13.125V5.625H14.375V6.875H15V8.125H15.625V9.375H14.375H13.75H13.125V8.125H12.5V6.875H11.875V5.625ZM8.125 15.625H8.75V14.375H8.125V13.125H7.5V11.875H6.875V10.625H6.25H5.625H4.375V11.875H5V13.125H5.625V14.375H6.875V15H8.125V15.625ZM8.125 4.375H8.75V5.625H8.125V6.875H7.5V8.125H6.875V9.375H6.25H5.625H4.375V8.125H5V6.875H5.625V5.625H6.875V5H8.125V4.375ZM11.875 10.625V11.875H11.25V13.125H10.625V14.375H10H9.375V13.125H8.75V11.875H8.125V10.625H9.375H10.625H11.875ZM11.25 8.125H11.875V9.375H10.625H9.375H8.125V8.125H8.75V6.875H9.375V5.625H10H10.625V6.875H11.25V8.125Z" fill="#343435"/>
</svg>
