<svg width="32" height="32" viewBox="0 0 32 32" fill="none" xmlns="http://www.w3.org/2000/svg">
<path fill-rule="evenodd" clip-rule="evenodd" d="M12 6H14H16H18H20V7H21V8H22V10V12H24V13H25V14H26V16V18V20V22V24H25V25H24V26H22H20H18H16H14H12H10H8V25H7V24H6V22V20V18V16V14H7V13H8V12H10V10V8H11V7H12V6ZM20 12V10V9H19V8H18H16H14H13V9H12V10V12H14H16H18H20ZM10 24H9V23H8V22V20V18V16V15H9V14H10H12H14H16H18H20H22H23V15H24V16V18V20V22V23H23V24H22H20H18H16H14H12H10ZM17 17V19V21H15V19V17H17Z" fill="white"/>
</svg>
