<svg width="33" height="32" viewBox="0 0 33 32" fill="none" xmlns="http://www.w3.org/2000/svg">
<g clip-path="url(#clip0_913_27306)">
<path fill-rule="evenodd" clip-rule="evenodd" d="M22.5 5V6L24.5 6V8H25.5V24H24.5V26H22.5V27H10.5V26H8.5L8.5 24H7.5V8H8.5L8.5 6L10.5 6V5H22.5ZM9.5 8V24H10.5V25H22.5V24H23.5V8H22.5V7L10.5 7V8H9.5ZM18.5 22V20H12.5V22H18.5ZM20.5 15V17H12.5V15H20.5ZM20.5 12V10L12.5 10V12H20.5Z" fill="black"/>
</g>
<defs>
<clipPath id="clip0_913_27306">
<rect x="0.5" width="32" height="32" rx="4" fill="white"/>
</clipPath>
</defs>
</svg>
