<svg width="20" height="20" viewBox="0 0 20 20" fill="none" xmlns="http://www.w3.org/2000/svg">
<g id="&#230;&#154;&#130;&#229;&#129;&#156;">
<path id="Union" fill-rule="evenodd" clip-rule="evenodd" d="M8.125 3.125H9.375H10.625H11.875V3.75H13.125V4.375H14.375V5H15V5.625H15.625V6.875H16.25V8.125H16.875V9.375V10.625V11.875H16.25V13.125H15.625V14.375H15V15H14.375V15.625H13.125V16.25H11.875V16.875H10.625H9.375H8.125V16.25H6.875V15.625H5.625V15H5V14.375H4.375V13.125H3.75V11.875H3.125V10.625V9.375V8.125H3.75V6.875H4.375V5.625H5V5H5.625V4.375H6.875V3.75H8.125V3.125ZM9.375 15.625H10.625H11.875V15H13.125V14.375H14.375V13.125H15V11.875H15.625V10.625V9.375V8.125H15V6.875H14.375V5.625H13.125V5H11.875V4.375H10.625H9.375H8.125V5H6.875V5.625H5.625V6.875H5V8.125H4.375V9.375V10.625V11.875H5V13.125H5.625V14.375H6.875V15H8.125V15.625H9.375ZM7.5 7.5H8.75V8.75V10V11.25V12.5H7.5V11.25V10V8.75V7.5ZM12.5 7.5H11.25V8.75V10V11.25V12.5H12.5V11.25V10V8.75V7.5Z" fill="#7C7C80"/>
</g>
</svg>
