<svg width="32" height="32" viewBox="0 0 32 32" fill="none" xmlns="http://www.w3.org/2000/svg">
<path fill-rule="evenodd" clip-rule="evenodd" d="M12.8997 5.82843L11.4855 4.41421L10.7784 5.12132L10.0713 4.41421L9.36418 5.12132L8.65708 4.41421L7.24286 5.82843L6.53576 6.53553L5.82865 7.24264L6.53576 7.94975L5.82865 8.65685L6.53576 9.36396L5.82865 10.0711L6.53576 10.7782L5.82865 11.4853L6.53576 12.1924L5.82865 12.8995L7.24286 14.3137L8.65708 15.7279L10.0713 17.1421L11.4855 18.5563L12.8997 19.9706L14.3139 21.3848L15.7281 22.799L17.1424 24.2132L18.5566 25.6274L19.2637 24.9203L19.9708 25.6274L20.6779 24.9203L21.385 25.6274L22.0921 24.9203L22.7992 25.6274L23.5063 24.9203L24.2134 25.6274L24.9205 24.9203L25.6276 24.2132L27.0419 22.799L26.3347 22.0919L27.0419 21.3848L26.3347 20.6777L27.0419 19.9706L25.6276 18.5563L24.2134 17.1421L22.7992 15.7279L22.0921 16.435L21.385 15.7279L20.6779 16.435L19.9708 15.7279L18.5566 17.1421L17.1424 15.7279L15.7281 14.3137L14.3139 12.8995L15.7281 11.4853L15.021 10.7782L15.7281 10.0711L15.021 9.36396L15.7281 8.65685L14.3139 7.24264L12.8997 5.82843ZM12.8997 17.1421L14.3139 18.5563L15.7281 19.9706L17.1424 21.3848L18.5566 22.799L19.2637 23.5061L19.9708 22.799L21.385 24.2132L22.7992 22.799L24.2134 24.2132L23.5063 23.5061L24.2134 22.799L24.9205 22.0919L24.2134 21.3848L24.9205 20.6777L24.2134 19.9706L22.7992 18.5563L22.0921 17.8492L21.385 18.5563L20.6779 17.8492L19.9708 18.5563L19.2637 19.2635L18.5566 18.5563L17.8495 19.2635L17.1424 18.5563L15.7281 17.1421L14.3139 15.7279L12.8997 14.3137L12.1926 13.6066L12.8997 12.8995L12.1926 12.1924L12.8997 11.4853L13.6068 10.7782L12.8997 10.0711L13.6068 9.36396L12.8997 8.65685L11.4855 7.24264L10.7784 6.53553L10.0713 7.24264L9.36418 6.53553L8.65708 7.24264L7.94997 7.94975L8.65708 8.65685L7.24286 10.0711L8.65708 11.4853L7.94997 12.1924L8.65708 12.8995L10.0713 14.3137L11.4855 15.7279L12.8997 17.1421Z" fill="black"/>
</svg>
