<svg width="28" height="28" viewBox="0 0 28 28" fill="none" xmlns="http://www.w3.org/2000/svg">
<path fill-rule="evenodd" clip-rule="evenodd" d="M11.375 4.375H13.125H14.875H16.625V5.25H18.375V6.125H20.125V7H21V7.875H21.875V9.625H22.75V11.375H23.625V13.125V14.875V16.625H22.75V18.375H21.875V20.125H21V21H20.125V21.875H18.375V22.75H16.625V23.625H14.875H13.125H11.375V22.75H9.625V21.875H7.875V21H7V20.125H6.125V18.375H5.25V16.625H4.375V14.875V13.125V11.375H5.25V9.625H6.125V7.875H7V7H7.875V6.125H9.625V5.25H11.375V4.375ZM16.625 21.875V21H18.375V20.125H20.125V18.375H21V16.625H21.875V14.875V13.125V11.375H21V9.625H20.125V7.875H18.375V7H16.625V6.125H14.875H13.125H11.375V7H9.625V7.875H7.875V9.625H7V11.375H6.125V13.125V14.875V16.625H7V18.375H7.875V20.125H9.625V21H11.375V21.875H13.125H14.875H16.625ZM12.25 9.625V10.5H14V11.375H15.75V12.25H17.5V13.125H18.375V14.875H17.5V15.75H15.75V16.625H14V17.5H12.25V18.375H10.5V16.625V14.875V13.125V11.375V9.625H12.25ZM14 14.875V15.75H12.25V14.875V13.125V12.25H14V13.125H15.75V14V14.875H14Z" fill="black"/>
</svg>
