<svg width="14" height="14" viewBox="0 0 14 14" fill="none" xmlns="http://www.w3.org/2000/svg">
<path d="M7.68478 1.75H8.59783V5.95H12.25V6.79H11.7935V7.21H11.337V7.63H10.8804V8.05H10.4239V8.47H9.96739V8.89H9.51087V9.31H9.05435V9.73H8.59783V10.15H8.1413V10.57H7.68478V10.99H7.22826V11.41H6.77174V11.83H6.31522V12.25H5.40217V8.05H1.75V7.21H2.20652V6.79H2.66304V6.37H3.11957V5.95H3.57609V5.53H4.03261V5.11H4.48913V4.69H4.94565V4.27H5.40217V3.85H5.8587V3.43H6.31522V3.01H6.77174V2.59H7.22826V2.17H7.68478V1.75Z" fill="black"/>
</svg>
