<svg width="24" height="24" viewBox="0 0 24 24" fill="none" xmlns="http://www.w3.org/2000/svg">
<path fill-rule="evenodd" clip-rule="evenodd" d="M9.75 4.5H11.25H12.75H14.25V5.25H15.75V6H17.25V6.75H18V7.5H18.75V9H19.5V10.5H20.25V12V13.5V15H19.5V16.5H18.75V18H18V18.75H17.25V19.5H15.75V18H17.25V16.5H18V15H18.75V13.5V12V10.5H18V9H17.25V7.5H15.75V6.75H14.25V6H12.75H11.25H9.75V6.75H8.25V7.5H6.75V9H6V10.5H5.25V12V13.5V15H6V16.5H6.75V18H8.25V19.5H6.75V18.75H6V18H5.25V16.5H4.5V15H3.75V13.5V12V10.5H4.5V9H5.25V7.5H6V6.75H6.75V6H8.25V5.25H9.75V4.5ZM12.7547 10.5006V9.75H11.2534V10.5006H10.4976V11.2513H9.75206V11.9993H8.99872V12.7487H8.24945V14.2474H9.74815V13.498H10.4974V12.7526H11.2502V19.5H12.7502V13.5032H12.7547V12.7487H13.5027V13.498H14.252V14.2474H15.7507V12.7487H15.0014V11.9993H14.2522V11.25H13.5027V10.5006H12.7547Z" fill="black"/>
</svg>
