<svg width="25" height="24" viewBox="0 0 25 24" fill="none" xmlns="http://www.w3.org/2000/svg">
<path fill-rule="evenodd" clip-rule="evenodd" d="M10.25 19.5H11.75H13.25H14.75V18.75H16.25V18H17.75V17.25H18.5V16.5H19.25V15H20V13.5H20.75V12V10.5V9H20V7.5H19.25V6H18.5V5.25H17.75V4.5H16.25V6H17.75V7.5H18.5V9H19.25V10.5V12V13.5H18.5V15H17.75V16.5H16.25V17.25H14.75V18H13.25H11.75H10.25V17.25H8.75V16.5H7.25V15H6.5V13.5H5.75V12V10.5V9H6.5V7.5H7.25V6H8.75V4.5H7.25V5.25H6.5V6H5.75V7.5H5V9H4.25V10.5V12V13.5H5V15H5.75V16.5H6.5V17.25H7.25V18H8.75V18.75H10.25V19.5ZM13.2547 13.4994V14.25H11.7534V13.4994H10.9976V12.7487H10.2521V12.0007H9.49872V11.2513H8.74945V9.75263H10.2481V10.502H10.9974V11.2474H11.7502V4.5H13.2502V10.4968H13.2547V11.2513H14.0027V10.502H14.752V9.75263H16.2507V11.2513H15.5014V12.0007H14.7522V12.75H14.0027V13.4994H13.2547Z" fill="black"/>
</svg>
