<svg width="20" height="20" viewBox="0 0 20 20" fill="none" xmlns="http://www.w3.org/2000/svg">
<path fill-rule="evenodd" clip-rule="evenodd" d="M13.75 2.5H12.5V3.75H13.125V4.375H13.75V5H12.5H11.25H10H8.75H7.5V5.625H6.25V6.25H5V6.875H4.375V7.5H3.75V8.75V10H5V8.75V8.125H5.625V7.5H6.25V6.875H7.5V6.25H8.75H10H11.25H12.5H13.75V6.875H13.125V7.5H12.5V8.75H13.75V8.125H14.375V7.5H15V6.875H15.625V6.25H16.25V5H15.625V4.375H15V3.75H14.375V3.125H13.75V2.5ZM15 10V11.25V11.875H14.375V12.5H13.75V13.125H12.5V13.75H11.25H10H8.75H7.5H6.25V13.125H6.875V12.5H7.5V11.25H6.25V11.875H5.625V12.5H5V13.125H4.375V13.75H3.75V15H4.375V15.625H5V16.25H5.625V16.875H6.25V17.5H7.5V16.25H6.875V15.625H6.25V15H7.5H8.75H10H11.25H12.5V14.375H13.75V13.75H15V13.125H15.625V12.5H16.25V11.25V10H15Z" fill="#343435"/>
</svg>
