<svg width="16" height="16" viewBox="0 0 16 16" fill="none" xmlns="http://www.w3.org/2000/svg">
<path fill-rule="evenodd" clip-rule="evenodd" d="M13.4999 4.5H12.4999V4.99999H11.9999V5.49999H11.4999V5.99998H10.9999V6.49998H10.4999V6.99997H9.99992V7.49997H9.49993V7.99996H8.99993V8.49996H8.49994V8.99995H7.99994V9.49995H7.49995V9.99994H6.99995V10.4999H6.49996H5.99996V9.99994H5.49997V9.49995H4.99997V8.99995H4.49998V8.49996H3.99998V7.99996H3.49999V7.49997H2.5V8.49996H2.99999V8.99995H3.49999V9.49995H3.99998V9.99994H4.49998V10.4999H4.99997V10.9999H5.49997V11.4999H5.99996V11.9999H6.99995V11.4999H7.49995V10.9999H7.99994V10.4999H8.49994V9.99994H8.99993V9.49995H9.49993V8.99995H9.99992V8.49996H10.4999V7.99996H10.9999V7.49997H11.4999V6.99997H11.9999V6.49998H12.4999V5.99998H12.9999V5.49999H13.4999V4.5Z" fill="#343435"/>
</svg>
