<svg width="24" height="24" viewBox="0 0 24 24" fill="none" xmlns="http://www.w3.org/2000/svg">
<path fill-rule="evenodd" clip-rule="evenodd" d="M12.7546 4.5V5.25064H13.5029V6H14.2522V6.74927H15.0014V7.49872H15.7507V8.24808H16.5V9.74677H15.0013V8.99741H14.252V8.24796H13.5027V7.49869H12.7546V8.25323H12.7502V14.25H11.2502V7.50257H10.4976V8.24796H9.74797V8.99741H8.9987V9.74677H7.5V8.24808H8.24927V7.49872H8.9989V6.74927H9.75224V6.00128H10.4974V5.25064H11.2533V4.5H12.7546ZM5.9987 15.7487V14.25H4.5V15.7487H5.9987ZM5.9987 12.75V14.2487H4.5V12.75H5.9987ZM5.9987 15.75V16.5H6.7487V17.25H7.4987V18.7487H6V17.9987H5.25V17.2487H4.5V15.75H5.9987ZM8.9987 17.25V18.7487H7.5V17.25H8.9987ZM10.4987 18.7487V17.25H9V18.7487H10.4987ZM11.9987 17.25V18.7487H10.5V17.25H11.9987ZM13.4987 18.7487V17.25H12V18.7487H13.4987ZM14.9987 17.25V18.7487H13.5V17.25H14.9987ZM16.4987 18.7487V17.25H15V18.7487H16.4987ZM17.9987 17.9987V18.7487H16.5V17.25H17.25V16.5H18V15.75H19.4987V17.2487H18.7487V17.9987H17.9987ZM19.4987 15.7487V14.25H18V15.7487H19.4987ZM19.4987 12.75V14.2487H18V12.75H19.4987Z" fill="black"/>
</svg>
