<svg width="65" height="48" viewBox="0 0 65 48" fill="none" xmlns="http://www.w3.org/2000/svg">
<g clip-path="url(#clip0_865_13430)">
<path fill-rule="evenodd" clip-rule="evenodd" d="M31 16H35V32H31V16ZM39 19H43V29H39V19ZM23 19H27V29H23V19ZM47 21H51V27H47V21ZM15 21H19V27H15V21Z" fill="#343435"/>
<path fill-rule="evenodd" clip-rule="evenodd" d="M55 6H11V10H7V14H3V34H7V38H11V42H55V38H59V34H63V14H59V10H55V6ZM55 10V14H59V34H55V38H11V34H7V14H11V10H55Z" fill="#343435"/>
</g>
<defs>
<clipPath id="clip0_865_13430">
<rect width="64" height="48" fill="white" transform="translate(0.5)"/>
</clipPath>
</defs>
</svg>
